<svg width="440" height="500" viewBox="0 0 440 500" fill="none" xmlns="http://www.w3.org/2000/svg">
<g opacity="0.15">
<path d="M167.478 375.469V470.115L219.937 499.95V405.158L167.478 375.469Z" fill="#2286FE"/>
<path d="M219.928 0L0 124.989V375.032L83.2895 422.318V172.348L219.928 94.7921L355.534 171.841L438.385 124.121L219.928 0Z" fill="#2286FE"/>
<path d="M439.868 125.042V375.016L219.939 500.001V405.212L356.578 327.656V172.401L355.545 171.821L438.396 124.101L439.868 125.042Z" fill="#4D9DFC"/>
<path d="M272.327 220.285V279.81L219.939 309.499V249.974L271.885 220.069L272.327 220.285Z" fill="#4D9DFC"/>
<path d="M271.958 219.986L219.937 190.516L167.478 220.205V279.803L219.937 309.493V249.968L271.958 219.986Z" fill="#2087FF"/>
</g>
</svg>
